<svg width="137" height="66" viewBox="0 0 137 66" fill="none" xmlns="http://www.w3.org/2000/svg">
<path d="M11.0699 18.0345C16.957 13.5784 24.9225 10.0635 34.9641 7.49221C45.2864 4.79237 56.4774 3.44244 68.537 3.44244C80.5941 3.44244 91.8044 4.79237 102.17 7.49221C112.212 10.0635 120.175 13.5784 126.064 18.0345C132.152 22.6216 135.199 27.5919 135.199 32.9479C135.199 38.3065 132.152 43.2768 126.064 47.8614C120.175 52.3174 112.212 55.8323 102.17 58.4036C91.8044 61.1035 80.5941 62.4534 68.537 62.4534C56.4774 62.4534 45.2864 61.1035 34.9641 58.4036C24.9225 55.8323 16.957 52.3174 11.0699 47.8614C4.97965 43.2768 1.93572 38.3065 1.93572 32.9479C1.93572 27.5919 4.97965 22.6216 11.0699 18.0345ZM102.775 60.5892C112.977 57.6734 121.082 53.7753 127.093 48.8899C133.263 43.9196 136.348 38.6047 136.348 32.9479C136.348 27.2911 133.263 21.9788 127.093 17.006C121.082 12.1205 112.977 8.22246 102.775 5.30662C92.1674 2.30851 80.7563 0.806877 68.537 0.806877C56.3177 0.806877 44.9235 2.30851 34.3592 5.30662C24.1555 8.22246 16.0496 12.1205 10.0416 17.006C3.87145 21.9788 0.786377 27.2911 0.786377 32.9479C0.786377 38.6047 3.84967 43.9196 9.9811 48.8899C15.9891 53.7753 24.0756 57.6734 34.2382 60.5892C44.8436 63.5873 56.2765 65.089 68.537 65.089C80.7563 65.089 92.1674 63.5873 102.775 60.5892ZM23.6522 30.1195C27.0397 30.1195 30.3861 29.1887 33.6938 27.3219C36.9991 25.4578 39.4187 23.1333 40.9528 20.3486C41.5577 19.279 41.8602 18.3559 41.8602 17.5845C41.8602 16.0006 40.7108 15.2061 38.4121 15.2061C34.9835 15.2061 31.1919 16.6434 27.0397 19.513C23.4102 21.9994 20.405 24.9127 18.0265 28.2553C14.3559 27.0494 12.5217 24.9821 12.5217 22.0508C12.5217 20.6726 13.2476 19.4667 14.6994 18.4305C16.1512 17.3968 17.9442 16.8774 20.0832 16.8774C21.9778 16.8774 24.0756 17.3068 26.3743 18.163C26.6163 18.163 26.7566 18.0525 26.7978 17.8313C26.8365 17.6102 26.7155 17.4996 26.4348 17.4996C24.4168 16.5714 22.2996 16.106 20.0832 16.106C17.3006 16.106 15.0938 16.6871 13.4582 17.8468C11.8225 19.0064 11.0095 20.4438 11.0095 22.1614C11.0095 25.684 13.0444 28.0651 17.1191 29.3096C14.6583 33.1331 13.4291 36.8254 13.4291 40.3892C13.4291 42.8371 14.0219 44.781 15.2148 46.2183C16.4029 47.6557 17.9249 48.3756 19.7832 48.3756C21.5979 48.3756 23.432 47.6685 25.2879 46.2543C28.1915 44.0687 30.1272 40.9189 31.0951 36.8048C31.2548 36.162 31.3371 35.5629 31.3371 35.0049C31.3371 32.4337 30.0861 31.148 27.5866 31.148C26.0936 31.148 24.6225 31.6854 23.1707 32.7551C21.5979 33.871 20.4486 35.3701 19.7227 37.2548C19.5605 37.6405 19.6017 37.8334 19.8436 37.8334C20.0033 37.8334 20.1655 37.6842 20.3276 37.3834C21.1745 35.8406 22.273 34.5987 23.6232 33.655C24.9733 32.7139 26.234 32.2408 27.4027 32.2408C29.2174 32.2408 30.1248 33.205 30.1248 35.1335C30.1248 36.7637 29.5392 38.6047 28.3705 40.6618C27.2817 42.5491 26.0912 44.0044 24.8015 45.033C23.3885 46.1489 21.9971 46.7043 20.6276 46.7043C19.3767 46.7043 18.358 46.2672 17.574 45.3878C16.7876 44.511 16.3932 43.2999 16.3932 41.7571C16.3932 40.7723 16.5747 39.7233 16.9376 38.6073C17.7845 36.036 19.517 33.187 22.1399 30.0578C22.4617 30.0989 22.965 30.1195 23.6522 30.1195ZM126.302 34.555C127.032 33.871 127.395 33.1202 127.395 32.3051C127.395 30.7623 126.406 30.0784 124.431 30.2481C122.817 30.3766 121.153 31.1069 119.442 32.4337C117.726 33.763 116.267 35.4549 115.057 37.5119C114.491 38.4556 114.109 39.2707 113.908 39.9547C112.778 41.5411 111.508 42.7625 110.097 43.6187C109.492 43.9633 108.986 44.133 108.585 44.133C107.898 44.133 107.757 43.7267 108.161 42.9116C110.702 38.0699 112.839 34.105 114.573 31.0195H111.065C108.926 34.9201 107.111 38.1779 105.621 40.7903C104.411 42.4205 103.201 43.8116 101.991 44.9687C101.507 45.4418 101.084 45.6758 100.721 45.6758C100.196 45.6758 99.9345 45.3544 99.9345 44.7115C99.9345 44.4133 100.014 44.1124 100.176 43.8116L107.01 31.0195H103.38C103.138 31.4926 102.855 32.0068 102.533 32.5622C102.533 31.0195 101.645 30.2481 99.8716 30.2481C98.7828 30.2481 97.5923 30.6132 96.3026 31.3409C92.8739 33.2693 90.4954 36.2057 89.1646 40.1475C86.8659 43.2331 84.5455 44.7758 82.2081 44.7758C80.674 44.7758 79.9094 43.9633 79.9094 42.3331C79.9094 41.2634 80.2723 39.9778 80.9982 38.4762C85.1915 37.062 87.9136 35.7558 89.1646 34.555C89.8905 33.871 90.2534 33.1202 90.2534 32.3051C90.2534 30.7623 89.2444 30.0784 87.2289 30.2481C85.6149 30.3766 83.9502 31.1069 82.2395 32.4337C80.524 33.763 79.0819 35.4549 77.9132 37.5119C77.1461 38.885 76.6428 40.1475 76.4009 41.3046C75.5128 42.3331 74.545 43.1688 73.4973 43.8116C72.9311 44.1561 72.4471 44.3258 72.0455 44.3258C71.6003 44.3258 71.3801 44.133 71.3801 43.7473C71.3801 43.3205 72.2753 41.5849 74.0707 38.5405C75.8637 35.4986 76.7614 33.4622 76.7614 32.4337C76.7614 30.9783 75.9532 30.2481 74.3417 30.2481C72.4858 30.2481 70.2065 31.4051 67.5062 33.7193L68.958 31.0195H65.3914L62.9112 35.4549C62.1031 36.0566 61.4594 36.3549 60.9755 36.3549C60.4093 36.3549 60.1286 35.9923 60.1286 35.2621C60.1286 34.7915 60.5109 34.159 61.278 33.3645C62.0426 32.5725 62.4273 31.9194 62.4273 31.4051C62.4273 30.6775 61.9821 30.3124 61.0965 30.3124C59.6447 30.3124 57.6678 31.814 55.1683 34.8121L57.225 31.0195H53.8375C52.5067 33.5907 51.0936 36.0566 49.6031 38.4119C48.553 40.0421 47.0407 41.7546 45.0662 43.5545C44.379 44.1561 43.8153 44.4544 43.3725 44.4544C42.9684 44.4544 42.7675 44.1767 42.7675 43.6187C42.7675 43.0196 43.0289 42.2277 43.5539 41.2403C45.7316 37.2548 47.5246 33.8479 48.9377 31.0195H45.4292C45.2259 31.4489 44.984 31.9194 44.7033 32.4337C44.5 30.9346 43.5322 30.1838 41.7997 30.1838C40.7108 30.1838 39.5397 30.5283 38.2912 31.2123C36.0723 32.4568 34.2382 34.321 32.7864 36.8048C31.4145 39.119 30.7297 41.2634 30.7297 43.2331C30.7297 45.8918 31.7363 47.2185 33.7543 47.2185C35.2859 47.2185 37.0813 46.2337 39.138 44.2616C39.138 46.2337 39.8422 47.2185 41.2553 47.2185C42.828 47.2185 44.7831 45.8043 47.1229 42.9759C46.3559 44.3901 45.7099 45.5703 45.1872 46.5114H48.8772L52.8696 39.0547L53.1721 38.5405C52.889 39.0984 52.6664 39.4841 52.5067 39.6975C52.5865 39.569 52.6882 39.3761 52.8091 39.119L52.8696 39.0547L53.1721 38.5405C55.5095 35.4549 57.2033 33.6344 58.2534 33.0765C57.9703 33.8916 57.8299 34.6193 57.8299 35.2621C57.8299 36.8923 58.5558 37.7048 60.0076 37.7048C60.6513 37.7048 61.3385 37.4914 62.0644 37.062L56.8621 46.5114H60.6731L65.5729 37.2548L65.6334 37.1263L65.8148 36.8691C66.9424 35.2852 68.7378 33.8067 71.1986 32.4337C71.6003 32.2202 71.9438 32.1123 72.2269 32.1123C72.7109 32.1123 72.9528 32.4131 72.9528 33.0122C72.9528 33.2693 72.8924 33.5496 72.7714 33.8479C70.8744 37.4914 69.3427 40.3404 68.174 42.3974C67.7288 43.341 67.5086 44.1767 67.5086 44.9044C67.5086 46.406 68.2732 47.1543 69.8073 47.1543C70.4921 47.1543 71.1575 46.9614 71.8035 46.5757C73.3352 45.6758 74.8063 44.4338 76.2194 42.8474C76.2194 44.1767 76.5823 45.2387 77.3082 46.0306C78.0341 46.8251 79.0214 47.2185 80.2723 47.2185C82.329 47.2185 84.5455 46.1257 86.9264 43.9402C87.57 43.341 88.1362 42.6982 88.6202 42.0117C88.6202 42.184 88.6202 42.3974 88.6202 42.6545C88.579 42.9554 88.5597 43.1482 88.5597 43.2331C88.5597 44.4776 88.8621 45.4495 89.467 46.1592C90.072 46.8688 90.8366 47.2185 91.7657 47.2185C93.0143 47.2185 94.2846 46.6194 95.5767 45.4186C95.5767 45.5472 95.4751 45.7298 95.2742 45.9638C95.071 46.2003 94.9718 46.3803 94.9718 46.5089C92.4699 51.2246 90.5559 54.2099 89.2251 55.4775C87.8943 56.74 85.9973 57.3751 83.5389 57.3751C82.1669 57.3751 80.9982 56.902 80.0304 55.9609C79.0625 55.0172 78.5786 53.8602 78.5786 52.4897C78.5786 51.5049 78.9294 50.6589 79.6384 49.9492C80.3425 49.2421 81.2402 48.8899 82.329 48.8899C82.6097 48.8899 82.7718 48.7845 82.813 48.5685C82.8517 48.355 82.7307 48.2471 82.45 48.2471C82.3678 48.2471 82.1669 48.2059 81.8451 48.1185C81.5209 48.0336 81.2402 47.9899 80.9982 47.9899C79.5851 47.9899 78.385 48.4528 77.3978 49.3733C76.4081 50.2964 75.9169 51.42 75.9169 52.7468C75.9169 54.3307 76.6138 55.6601 78.0027 56.7323C79.394 57.8019 81.3176 58.3393 83.7808 58.3393C89.4259 58.3393 93.9821 55.1664 97.4519 48.8256C98.0157 47.7971 98.4392 47.0257 98.7223 46.5114C99.0029 46.9408 99.3877 47.1543 99.8716 47.1543C100.999 47.1543 102.492 45.956 104.348 43.5545C103.985 44.7115 104.004 45.6012 104.408 46.2235C104.81 46.8457 105.476 47.1543 106.405 47.1543C107.048 47.1543 107.675 46.9846 108.28 46.64C109.974 45.6552 111.687 44.1561 113.422 42.1403C113.26 43.683 113.552 44.9275 114.298 45.8686C115.043 46.8123 116.1 47.2828 117.472 47.2828C119.609 47.2828 121.907 46.2132 124.368 44.0687C126.062 42.6134 127.393 40.7903 128.361 38.6047C128.482 38.3065 128.46 38.1136 128.3 38.0262C128.097 37.9413 127.915 38.0493 127.751 38.3476C126.413 40.4921 125.014 42.1068 123.555 43.2022C122.096 44.295 120.736 44.8427 119.481 44.8427C117.859 44.8427 117.049 43.9659 117.049 42.2071C117.049 41.3509 117.291 40.3224 117.78 39.1216L117.903 38.993C121.799 37.6637 124.596 36.1852 126.302 34.555ZM116.374 26.8745C116.824 26.4683 117.051 25.9875 117.051 25.4295C117.051 24.059 116.458 23.3725 115.27 23.3725C114.738 23.3725 114.235 23.5884 113.763 24.0153C113.291 24.4447 113.059 24.9152 113.059 25.4295C113.059 26.8025 113.632 27.4865 114.779 27.4865C115.391 27.4839 115.924 27.2808 116.374 26.8745ZM85.9585 31.7908C86.6433 31.7908 86.9869 32.0917 86.9869 32.6908C86.9869 34.321 85.1721 35.8406 81.5426 37.2548C83.2751 33.8273 84.7487 32.0068 85.9585 31.7908ZM123.342 32.048C124.027 32.048 124.371 32.3488 124.371 32.9479C124.371 35.0049 122.454 36.5271 118.624 37.5119C120.318 34.1281 121.891 32.3051 123.342 32.048ZM31.0031 21.12C33.9672 18.8496 36.2974 17.5639 37.9911 17.2631C39.6438 17.006 40.4713 17.4354 40.4713 18.5487C40.4713 18.9344 40.3285 19.3638 40.0478 19.8344C38.6348 22.3208 36.1957 24.4755 32.7284 26.2934C29.2586 28.1165 25.9315 29.0241 22.7472 29.0241C25.2855 26.0286 28.0366 23.393 31.0031 21.12ZM92.2497 42.3331C92.2497 40.9189 92.7215 39.2604 93.6724 37.35C94.6185 35.4446 95.7582 33.9559 97.089 32.8811C98.1778 31.9811 99.1651 31.5311 100.053 31.5311C100.939 31.5311 101.444 32.0043 101.565 32.9453C101.565 33.7604 101.483 34.447 101.323 35.0024C99.8716 37.5737 98.4198 40.2092 96.968 42.9091C95.959 43.8964 94.8895 44.3876 93.762 44.3876C92.753 44.3901 92.2497 43.7062 92.2497 42.3331ZM34.4197 42.1403C34.4197 40.7261 34.8431 39.119 35.69 37.3191C36.6168 35.3495 37.7467 33.8273 39.0776 32.7551C40.1664 31.8551 41.173 31.4051 42.1021 31.4051C43.4329 31.4051 43.9774 32.3488 43.7354 34.2336C42.0804 37.2342 40.8705 39.4198 40.1059 40.7903C39.622 41.6054 39.38 42.2277 39.38 42.6545C38.2089 43.8116 37.0402 44.3901 35.8715 44.3901C34.9036 44.3901 34.4197 43.6419 34.4197 42.1403Z" fill="white"/>
</svg>
