<svg width="43" height="46" viewBox="0 0 43 46" fill="none" xmlns="http://www.w3.org/2000/svg">
<g clip-path="url(#clip0_59_228)">
<path d="M21.5591 4.06273C27.2263 4.06273 27.8975 4.08564 30.1355 4.19412C32.2048 4.29445 33.3286 4.66178 34.0766 4.97047C35.0672 5.3795 35.7743 5.86819 36.517 6.65716C37.2597 7.44613 37.7197 8.19733 38.1046 9.24971C38.3953 10.0443 38.741 11.2382 38.8355 13.4365C38.9376 15.8141 38.9591 16.5272 38.9591 22.5477C38.9591 28.5683 38.9376 29.2813 38.8355 31.6589C38.741 33.8573 38.3953 35.0512 38.1046 35.8458C37.7197 36.8982 37.2597 37.6494 36.517 38.4383C35.7743 39.2273 35.0672 39.716 34.0766 40.1249C33.3286 40.4337 32.2048 40.801 30.1355 40.9014C27.8978 41.0098 27.2266 41.0328 21.5591 41.0328C15.8917 41.0328 15.2204 41.0098 12.9828 40.9014C10.9134 40.801 9.78963 40.4337 9.04174 40.1249C8.05105 39.716 7.34394 39.2273 6.60128 38.4383C5.85862 37.6494 5.39862 36.8982 5.01368 35.8458C4.72302 35.0512 4.37726 33.8573 4.28282 31.659C4.18071 29.2813 4.15914 28.5683 4.15914 22.5477C4.15914 16.5272 4.18071 15.8141 4.28282 13.4366C4.37726 11.2382 4.72302 10.0443 5.01368 9.24971C5.39862 8.19733 5.85862 7.44613 6.60128 6.65716C7.34394 5.86819 8.05105 5.3795 9.04174 4.97047C9.78963 4.66178 10.9134 4.29445 12.9827 4.19412C15.2208 4.08564 15.892 4.06273 21.5591 4.06273ZM21.5591 0C15.7949 0 15.0722 0.0259559 12.8085 0.135687C10.5493 0.245239 9.00653 0.626344 7.65643 1.18377C6.26075 1.75999 5.07712 2.53097 3.89721 3.78446C2.71729 5.03796 1.99156 6.29539 1.44916 7.7781C0.924456 9.21239 0.565721 10.8514 0.462599 13.2514C0.359309 15.6563 0.334961 16.4241 0.334961 22.5477C0.334961 28.6714 0.359309 29.4392 0.462599 31.8441C0.565721 34.2441 0.924456 35.8831 1.44916 37.3174C1.99156 38.8 2.71729 40.0575 3.89721 41.311C5.07712 42.5645 6.26075 43.3355 7.65643 43.9117C9.00653 44.4691 10.5493 44.8502 12.8085 44.9598C15.0722 45.0695 15.7949 45.0954 21.5591 45.0954C27.3233 45.0954 28.0461 45.0695 30.3098 44.9598C32.569 44.8502 34.1117 44.4691 35.4618 43.9117C36.8575 43.3355 38.0412 42.5645 39.2211 41.311C40.401 40.0575 41.1267 38.8001 41.6691 37.3174C42.1938 35.8831 42.5526 34.2441 42.6557 31.8441C42.759 29.4392 42.7834 28.6714 42.7834 22.5477C42.7834 16.4241 42.759 15.6563 42.6557 13.2514C42.5526 10.8514 42.1938 9.21239 41.6691 7.7781C41.1267 6.29539 40.401 5.03796 39.2211 3.78446C38.0412 2.53097 36.8575 1.75999 35.4618 1.18377C34.1117 0.626344 32.569 0.245239 30.3098 0.135687C28.0461 0.0259559 27.3233 0 21.5591 0ZM21.5591 10.9692C15.5398 10.9692 10.6602 16.1531 10.6602 22.5477C10.6602 28.9424 15.5398 34.1263 21.5591 34.1263C27.5784 34.1263 32.4581 28.9424 32.4581 22.5477C32.4581 16.1531 27.5784 10.9692 21.5591 10.9692ZM21.5591 30.0637C17.6519 30.0637 14.4844 26.6986 14.4844 22.5477C14.4844 18.3969 17.6519 15.0318 21.5591 15.0318C25.4664 15.0318 28.6339 18.3969 28.6339 22.5477C28.6339 26.6986 25.4664 30.0637 21.5591 30.0637ZM35.4356 10.5117C35.4356 12.0061 34.2953 13.2175 32.8887 13.2175C31.4821 13.2175 30.3417 12.0061 30.3417 10.5117C30.3417 9.01736 31.4821 7.80602 32.8887 7.80602C34.2953 7.80602 35.4356 9.01736 35.4356 10.5117Z" fill="white"/>
</g>
<defs>
<clipPath id="clip0_59_228">
<rect width="42.4484" height="45.0954" fill="white" transform="translate(0.334961)"/>
</clipPath>
</defs>
</svg>
