<svg width="123" height="164" viewBox="0 0 123 164" fill="none" xmlns="http://www.w3.org/2000/svg">
<path d="M70.9495 45.1506C70.9495 56.7638 70.9495 68.3688 70.9576 79.982C70.9576 80.3833 70.9167 80.7518 70.4833 80.8992C70.058 81.0467 69.7554 80.8337 69.4855 80.4979C64.4965 74.1181 59.4994 67.7464 54.5023 61.3665C54.3796 61.2109 54.2569 61.0635 54.0279 60.9324C54.0279 61.1126 54.0279 61.2846 54.0279 61.4648C54.0279 71.1288 54.0279 80.7928 54.0279 90.4568C54.0279 91.1284 54.1097 91.0547 53.4309 91.0547C52.932 91.0547 52.4331 91.0465 51.9424 91.0628C51.697 91.071 51.5989 90.9809 51.6316 90.7352C51.6398 90.6779 51.6316 90.6124 51.6316 90.5469C51.6316 79.0729 51.6316 67.6071 51.6316 56.1332C51.6316 55.7401 51.6561 55.3715 52.1059 55.2241C52.5231 55.0849 52.8093 55.265 53.0628 55.5926C55.1157 58.2298 57.1849 60.8587 59.2459 63.4876C62.2392 67.3041 65.2244 71.1288 68.2178 74.9452C68.2996 75.0517 68.3814 75.15 68.4713 75.2646C68.5858 75.1418 68.5368 75.0271 68.5368 74.9289C68.5368 65.0765 68.5368 55.2241 68.5368 45.3717C68.5368 45.298 68.5286 45.2161 68.5204 45.1424C69.3301 45.1506 70.1398 45.1506 70.9495 45.1506Z" fill="white"/>
<path d="M18.4509 100.997C19.2115 101.005 19.9721 101.03 20.7328 101.005C21.0681 100.997 21.2153 101.112 21.3298 101.423C23.1618 106.46 25.0102 111.488 26.8667 116.525C26.9158 116.648 26.9158 116.804 27.0875 116.926C27.4392 116.075 27.7909 115.247 28.1344 114.412C29.9173 110.104 31.7003 105.796 33.4587 101.472C33.6059 101.104 33.7858 100.981 34.162 101.005C34.7182 101.038 35.2825 101.03 35.8386 101.005C36.1658 100.989 36.2558 101.087 36.2558 101.415C36.2394 103.855 36.2476 106.304 36.2476 108.745C36.2476 111.775 36.2394 114.813 36.2558 117.844C36.2558 118.188 36.1821 118.31 35.8223 118.278C35.3725 118.245 34.9226 118.261 34.4728 118.278C34.2438 118.286 34.1866 118.212 34.1866 117.991C34.2356 113.495 34.0884 108.999 34.2847 104.502C34.2929 104.38 34.2847 104.257 34.2847 104.126C34.1048 104.199 34.0966 104.38 34.0475 104.519C32.2319 108.966 30.4244 113.413 28.6251 117.868C28.5024 118.171 28.3634 118.294 28.0281 118.286C27.3329 118.253 26.6295 118.253 25.9344 118.286C25.599 118.302 25.4845 118.171 25.3782 117.885C23.7997 113.462 22.2049 109.048 20.6183 104.625C20.5774 104.502 20.5283 104.38 20.4302 104.265C20.4302 104.732 20.422 105.199 20.4302 105.657C20.5038 108.376 20.4465 111.103 20.4629 113.822C20.471 115.174 20.4547 116.533 20.471 117.885C20.471 118.179 20.4056 118.294 20.0866 118.278C19.5469 118.253 18.9989 118.269 18.4591 118.269C18.4509 112.512 18.4509 106.755 18.4509 100.997Z" fill="white"/>
<path d="M104.236 114.912C104.212 114.928 104.163 114.936 104.163 114.961C103.975 117.041 102.601 117.95 100.769 118.376C98.9938 118.785 97.2518 118.515 95.5261 118.081C95.338 118.032 95.2317 117.95 95.2889 117.721C95.3953 117.287 95.338 116.697 95.6079 116.443C95.8533 116.206 96.393 116.566 96.802 116.648C97.9961 116.885 99.1901 117.033 100.401 116.787C100.875 116.689 101.325 116.509 101.693 116.189C102.527 115.469 102.511 114.24 101.644 113.503C101.096 113.036 100.433 112.766 99.7708 112.487C98.9121 112.127 98.0533 111.783 97.26 111.284C95.0681 109.924 95.2971 107.205 96.4994 105.952C97.2436 105.174 98.1842 104.797 99.2228 104.666C100.548 104.502 101.848 104.683 103.124 105.092C103.443 105.19 103.492 105.33 103.394 105.616C103.263 105.985 103.271 106.492 103.026 106.689C102.764 106.894 102.331 106.533 101.963 106.46C100.94 106.255 99.9099 106.083 98.8793 106.419C97.3908 106.894 97.0392 108.524 98.1923 109.572C98.6258 109.965 99.1492 110.202 99.6727 110.432C100.376 110.751 101.096 111.038 101.791 111.374C103.14 112.029 104.114 112.971 104.171 114.592C104.171 114.609 104.22 114.625 104.245 114.641C104.236 114.723 104.236 114.822 104.236 114.912Z" fill="white"/>
<path d="M90.9052 67.1813C91.8294 67.6727 92.6227 68.2951 93.2934 69.0895C95.7224 71.9396 95.2644 78.2539 90.2836 80.0803C88.9751 80.5635 87.6174 80.8092 86.2271 80.8174C83.3482 80.8337 80.4775 80.8256 77.5986 80.8256C76.8707 80.8256 76.6335 80.5799 76.6335 79.8428C76.6335 72.0133 76.6335 64.1838 76.6335 56.3543C76.6335 55.6172 76.8707 55.3715 77.6068 55.3715C80.1422 55.3715 82.6694 55.3633 85.2047 55.3797C86.2598 55.3879 87.3066 55.5189 88.329 55.7974C91.1015 56.5672 92.7127 58.5082 92.9253 61.3911C93.0562 63.1519 92.7863 64.839 91.6822 66.2968C91.4614 66.5998 91.1833 66.8701 90.9052 67.1813ZM79.0217 73.5284C79.0217 75.019 79.0299 76.5177 79.0135 78.0082C79.0053 78.3604 79.1117 78.4505 79.4552 78.4505C81.5489 78.4341 83.6508 78.4505 85.7445 78.4423C86.9141 78.4341 88.0672 78.3276 89.1795 77.9345C92.271 76.8535 93.3915 72.8978 91.2814 70.4572C90.2673 69.2861 88.9015 68.7701 87.3966 68.6964C84.714 68.5654 82.0232 68.6718 79.3407 68.6391C79.0053 68.6309 79.0135 68.8111 79.0135 69.0486C79.0217 70.5391 79.0217 72.0297 79.0217 73.5284ZM79.0217 61.9889C79.0217 63.2993 79.0217 64.6015 79.0217 65.9118C79.0217 66.1084 79.0135 66.264 79.2998 66.264C81.8433 66.2476 84.395 66.2968 86.9386 66.2231C88.7706 66.1739 90.0056 65.1502 90.4063 63.5204C90.6353 62.5704 90.619 61.604 90.39 60.654C90.1364 59.5975 89.4903 58.8686 88.5089 58.4181C87.781 58.0824 87.0122 57.9104 86.2189 57.8449C83.9207 57.6565 81.6225 57.8039 79.3243 57.7466C79.0217 57.7384 79.0135 57.8776 79.0135 58.1151C79.0217 59.4091 79.0217 60.6949 79.0217 61.9889Z" fill="white"/>
<path d="M27.8645 68.1067C27.8645 64.2002 27.8645 60.2936 27.8645 56.3871C27.8645 55.6254 28.1099 55.3715 28.8623 55.3715C31.3813 55.3797 33.9003 55.2814 36.4111 55.4288C41.2611 55.7155 44.6061 58.3526 46.0537 62.9963C47.3132 67.0338 47.2642 71.0796 45.3913 74.937C43.502 78.8108 40.2469 80.6699 36.0104 80.8173C33.6222 80.8992 31.2259 80.8337 28.8296 80.8337C28.1344 80.8337 27.8727 80.5717 27.8727 79.8755C27.8645 75.9444 27.8645 72.0215 27.8645 68.1067ZM30.2772 68.0903C30.2772 71.3908 30.2772 74.6832 30.2772 77.9837C30.2772 78.2375 30.2363 78.4587 30.637 78.4505C32.5181 78.4177 34.3992 78.4996 36.2721 78.3932C39.5354 78.2212 41.9644 76.6569 43.3384 73.6594C44.7697 70.5227 44.786 67.2713 43.8455 64.0036C42.6678 59.9169 39.7317 57.7629 35.487 57.7548C33.933 57.7548 32.3791 57.7711 30.8252 57.7466C30.3917 57.7384 30.2527 57.8203 30.2608 58.2871C30.2854 61.5548 30.2772 64.8226 30.2772 68.0903Z" fill="white"/>
<path d="M47.4195 116.779C46.3971 117.606 45.3176 118.237 44.0335 118.409C42.635 118.597 41.2446 118.556 40.1323 117.524C38.1695 115.706 38.8646 112.201 41.3591 111.177C42.2915 110.792 43.2729 110.686 44.2707 110.661C45.1703 110.645 46.07 110.62 46.9696 110.62C47.2395 110.62 47.3131 110.546 47.2968 110.284C47.2722 109.727 47.2968 109.162 47.2559 108.605C47.1496 107.066 46.528 106.443 44.9904 106.329C43.6328 106.23 42.2915 106.353 41.0074 106.828C40.6476 106.959 40.5085 106.886 40.4595 106.533C40.4349 106.394 40.3859 106.263 40.3531 106.132C40.1405 105.395 40.1405 105.387 40.8929 105.149C42.7495 104.576 44.6305 104.38 46.5362 104.83C48.3027 105.248 49.1942 106.435 49.2024 108.261C49.2024 110.645 49.2024 113.02 49.2024 115.403C49.2024 116.378 49.4314 116.681 50.3965 116.853C50.6173 116.894 50.6418 116.967 50.6255 117.147C50.6091 117.336 50.6091 117.524 50.6091 117.704C50.5846 118.433 50.56 118.474 49.8158 118.417C48.728 118.335 47.7957 118.007 47.4195 116.779ZM47.305 113.724C47.305 113.257 47.2886 112.79 47.3131 112.324C47.3295 112.045 47.215 111.988 46.9696 111.996C45.8982 112.045 44.835 112.07 43.7636 112.127C43.2484 112.152 42.7495 112.275 42.2833 112.496C41.2691 112.979 40.7375 114.011 40.9584 115.108C41.171 116.165 41.948 116.795 43.1011 116.885C44.4179 116.984 45.5466 116.509 46.6588 115.87C47.1414 115.591 47.4113 115.28 47.3213 114.699C47.2641 114.379 47.305 114.052 47.305 113.724Z" fill="white"/>
<path d="M79.2506 112.004C77.9338 112.004 76.6089 112.012 75.2921 111.996C74.9732 111.988 74.8914 112.094 74.9159 112.389C74.965 113.061 75.0386 113.716 75.2594 114.355C75.8074 115.968 77.1078 116.82 79.0461 116.877C80.2974 116.918 81.5242 116.771 82.7183 116.386C83.0455 116.279 83.1763 116.329 83.1927 116.672C83.2009 116.795 83.2417 116.918 83.2663 117.033C83.4544 117.917 83.4544 117.934 82.5956 118.147C80.8127 118.605 79.0134 118.72 77.1978 118.376C75.1204 117.975 73.7791 116.754 73.2638 114.699C72.7241 112.561 72.7568 110.415 73.4601 108.311C74.4906 105.248 77.7703 103.749 80.7718 104.945C82.1213 105.485 82.8492 106.558 83.2499 107.901C83.6261 109.154 83.6589 110.44 83.6507 111.734C83.6507 112.021 83.4953 112.012 83.299 112.012C81.9495 111.996 80.6001 112.004 79.2506 112.004ZM78.2528 110.522C79.2751 110.522 80.3056 110.514 81.328 110.53C81.5815 110.53 81.7042 110.481 81.6551 110.203C81.5815 109.727 81.5733 109.244 81.4752 108.769C81.2216 107.606 80.7064 106.607 79.4632 106.263C78.2037 105.919 77.0587 106.198 76.1509 107.18C75.3494 108.057 75.0713 109.146 74.9486 110.293C74.9159 110.604 75.1204 110.522 75.2676 110.522C76.2654 110.522 77.255 110.522 78.2528 110.522Z" fill="white"/>
<path d="M88.836 110.817C88.836 112.184 88.7951 113.56 88.8524 114.92C88.9096 116.206 89.5885 116.795 90.8889 116.853C91.6576 116.885 92.4101 116.763 93.138 116.541C93.4079 116.46 93.4733 116.541 93.506 116.763C93.5305 116.902 93.5633 117.033 93.596 117.172C93.7923 118.106 93.7923 118.114 92.8763 118.319C91.993 118.515 91.1015 118.597 90.1937 118.532C88.0345 118.376 86.9059 117.156 86.8977 114.928C86.8813 112.373 86.8977 109.826 86.8977 107.271C86.8977 106.591 86.8977 106.591 86.2271 106.591C85.8099 106.591 85.2374 106.73 85.0248 106.517C84.7631 106.263 84.9757 105.698 84.943 105.264C84.9185 105.01 84.9921 104.904 85.2701 104.92C85.72 104.945 86.1698 104.912 86.6196 104.928C86.8404 104.936 86.914 104.871 86.9059 104.642C86.8895 103.97 86.9304 103.298 86.8895 102.635C86.865 102.25 87.0122 102.168 87.3557 102.193C87.7074 102.217 88.0754 102.217 88.4271 102.193C88.7052 102.176 88.8033 102.25 88.7951 102.545C88.7706 103.102 88.7869 103.667 88.7869 104.224C88.7869 104.92 88.787 104.92 89.4576 104.92C90.4963 104.92 91.5431 104.928 92.5818 104.912C92.8763 104.904 92.9989 104.969 92.9744 105.289C92.9417 105.706 93.1053 106.255 92.8926 106.501C92.6718 106.763 92.1075 106.574 91.6904 106.583C90.8643 106.591 90.0465 106.599 89.2204 106.583C88.9096 106.574 88.8033 106.64 88.8033 106.984C88.8278 108.262 88.8115 109.539 88.8115 110.809C88.8197 110.817 88.8278 110.817 88.836 110.817Z" fill="white"/>
<path d="M61.9774 109.072C61.9774 106.149 61.9856 103.225 61.9692 100.301C61.9692 99.9242 62.0756 99.826 62.4272 99.8505C62.7789 99.8833 63.147 99.8833 63.4986 99.8505C63.8912 99.8096 63.9485 99.9734 63.9485 100.317C63.9403 106.149 63.9403 111.98 63.9485 117.811C63.9485 118.22 63.8258 118.319 63.4577 118.278C63.1388 118.245 62.8035 118.245 62.4845 118.278C62.1001 118.319 61.9692 118.22 61.9692 117.786C61.9938 114.887 61.9774 111.98 61.9774 109.072Z" fill="white"/>
<path d="M54.8376 106.558C55.451 105.739 56.1953 105.166 57.1358 104.863C58.0273 104.576 58.9351 104.576 59.8429 104.781C60.0638 104.83 60.1537 104.895 60.0883 105.149C59.9738 105.583 60.0392 106.173 59.7693 106.419C59.5485 106.615 58.9596 106.386 58.5344 106.353C57.1931 106.239 55.4183 107.221 54.8376 108.384C54.7558 108.548 54.7722 108.72 54.7722 108.884C54.7722 111.873 54.764 114.854 54.7804 117.844C54.7804 118.179 54.7231 118.319 54.3551 118.286C53.9543 118.245 53.5454 118.261 53.1447 118.286C52.8911 118.302 52.842 118.204 52.842 117.966C52.8502 113.732 52.8502 109.506 52.842 105.272C52.842 105.01 52.9075 104.92 53.1774 104.928C53.6763 104.953 54.2897 104.764 54.6332 104.994C55.0176 105.248 54.7068 105.911 54.7804 106.386C54.7804 106.427 54.7967 106.46 54.8376 106.558Z" fill="white"/>
<path d="M72.3478 118.278C71.53 118.278 70.8266 118.269 70.1151 118.286C69.927 118.286 69.837 118.179 69.747 118.057C68.0377 115.862 66.3366 113.667 64.6272 111.472C64.4718 111.267 64.4882 111.153 64.6436 110.981C66.3856 109.04 68.1195 107.09 69.8616 105.149C69.9597 105.035 70.0578 104.936 70.2459 104.936C70.8921 104.953 71.5463 104.945 72.2988 104.945C71.8081 105.493 71.3828 105.968 70.9493 106.443C69.5998 107.926 68.2585 109.416 66.9009 110.882C66.6883 111.112 66.6882 111.234 66.8845 111.48C68.6838 113.7 70.4749 115.944 72.3478 118.278Z" fill="white"/>
</svg>
