<svg version="1.1" id="Layer_1" xmlns="http://www.w3.org/2000/svg" xmlns:xlink="http://www.w3.org/1999/xlink" x="0px" y="0px"
	 width="100%" viewBox="0 0 2048 860" enable-background="new 0 0 2048 860" xml:space="preserve">
<path fill="#FFFFFF" opacity="1.000000" stroke="none" 
	d="
M0.999993,621.468628 
	C1.664891,620.529236 2.568369,620.204163 2.958341,619.565552 
	C7.566970,612.018738 10.920876,603.265686 16.950771,597.138672 
	C24.390652,589.578979 33.948788,584.037354 44.903748,581.993958 
	C61.988850,578.807068 77.460907,582.129883 91.255730,592.994507 
	C100.793694,600.506470 108.365685,609.606323 110.835312,621.520142 
	C112.450844,629.313721 111.636024,637.601318 112.018921,645.662476 
	C112.533676,656.499756 106.815430,664.742126 100.705971,672.742310 
	C92.966812,682.876587 82.878677,689.066101 70.313713,692.199707 
	C58.721668,695.090576 47.332512,694.120056 36.739799,690.514771 
	C24.611490,686.386902 14.801119,677.908875 8.184127,666.491089 
	C5.842690,662.450806 3.907349,658.175232 1.393300,654.003540 
	C1.000000,643.312439 1.000000,632.624878 0.999993,621.468628 
z"/>
<path fill="#FFFFFF" opacity="1.000000" stroke="none" 
	d="
M1466.000000,527.000000 
	C1466.000000,566.474854 1466.000000,605.449768 1466.000000,644.712158 
	C1430.380615,644.712158 1394.977173,644.712158 1359.286499,644.712158 
	C1359.286499,470.051270 1359.286499,295.322662 1359.286499,120.296951 
	C1467.598022,120.296951 1575.997070,120.296951 1684.771362,120.296951 
	C1684.842773,121.598099 1684.989380,123.030754 1684.990112,124.463486 
	C1685.003540,152.794540 1684.909668,181.126190 1685.094727,209.456039 
	C1685.123291,213.835312 1683.921631,215.102219 1679.491943,215.093658 
	C1610.331055,214.959915 1541.169800,215.000000 1472.008667,215.000000 
	C1470.197021,215.000000 1468.385498,215.000000 1466.287842,215.000000 
	C1466.287842,256.286072 1466.287842,297.355835 1466.287842,338.822510 
	C1523.953491,338.822510 1581.689941,338.822510 1639.712646,338.822510 
	C1639.712646,370.287079 1639.712646,401.357513 1639.712646,432.825073 
	C1582.043945,432.825073 1524.307617,432.825073 1466.000000,432.825073 
	C1466.000000,464.311890 1466.000000,495.405945 1466.000000,527.000000 
z"/>
<path fill="#FFFFFF" opacity="1.000000" stroke="none" 
	d="
M1217.342529,317.847656 
	C1225.580322,327.544739 1233.212280,337.282776 1238.133545,348.687531 
	C1242.160522,358.020355 1245.701904,367.594025 1248.881226,377.250977 
	C1251.183472,384.244080 1252.713013,391.511475 1254.254272,398.727600 
	C1255.169067,403.010223 1255.654175,407.415894 1255.955566,411.792236 
	C1256.747314,423.285919 1257.877808,434.792328 1257.910034,446.296356 
	C1258.095093,512.289734 1258.000000,578.283875 1258.000000,644.638916 
	C1224.528442,644.638916 1191.123413,644.638916 1157.000000,644.638916 
	C1157.000000,643.189453 1157.000000,641.443909 1157.000000,639.698364 
	C1157.000000,580.368835 1156.841309,521.038513 1157.119995,461.710266 
	C1157.183594,448.163300 1155.406738,435.068787 1151.592529,422.179352 
	C1147.823730,409.442871 1141.147583,398.780151 1130.770508,390.053497 
	C1115.378296,377.109131 1098.049316,373.235779 1078.562256,375.921875 
	C1066.474243,377.588104 1054.845825,380.242401 1044.506958,387.105499 
	C1035.222046,393.269012 1027.214722,400.665466 1021.885742,410.585632 
	C1015.067627,423.278107 1011.108643,436.805756 1011.021423,451.279449 
	C1010.638306,514.860657 1010.333130,578.442322 1010.000305,642.023865 
	C1009.996094,642.832092 1009.999817,643.640381 1009.999817,644.723816 
	C976.356689,644.723816 942.952759,644.723816 909.000000,644.723816 
	C909.000000,643.161499 909.000000,641.559875 909.000000,639.958191 
	C909.000000,524.632202 909.031128,409.306213 908.892761,293.980377 
	C908.886841,289.073730 910.316650,287.863556 915.071838,287.896027 
	C945.068481,288.101105 975.067261,288.000000 1005.065308,288.000000 
	C1006.539734,288.000000 1008.014099,288.000000 1010.011963,288.000000 
	C1010.011963,306.114990 1010.011963,323.969849 1010.011963,343.143921 
	C1013.103333,338.151764 1015.652954,334.457245 1017.771118,330.530029 
	C1022.903564,321.014343 1030.216797,313.482758 1038.578613,306.827667 
	C1050.904297,297.017761 1064.644043,289.773468 1079.591919,285.009216 
	C1086.597778,282.776276 1093.883301,281.124756 1101.167847,280.144745 
	C1108.496094,279.158783 1116.010132,278.762848 1123.389038,279.145447 
	C1132.479248,279.616730 1141.633911,280.575500 1150.538940,282.403534 
	C1159.600464,284.263672 1168.784668,286.543762 1177.208862,290.247009 
	C1189.330078,295.575500 1201.149658,301.819702 1210.408569,311.813232 
	C1212.394653,313.956909 1214.832764,315.681580 1217.342529,317.847656 
z"/>
<path fill="#FFFFFF" opacity="1.000000" stroke="none" 
	d="
M548.023682,262.912720 
	C548.604675,265.347229 549.632935,267.344666 549.650452,269.350891 
	C549.776733,283.805786 550.518555,298.326477 549.397217,312.696136 
	C548.644287,322.344604 545.923767,332.049988 542.675354,341.231720 
	C539.657959,349.760620 535.050659,357.783081 530.622620,365.738739 
	C527.186707,371.911926 523.178345,377.807678 518.987183,383.505096 
	C516.125977,387.394592 512.566772,390.782562 509.217316,394.297241 
	C506.319458,397.337982 503.414795,400.396423 500.274231,403.177277 
	C489.355377,412.845703 477.244080,420.695709 463.880127,426.589508 
	C445.955322,434.494873 427.558594,440.111633 407.619019,439.039734 
	C397.220825,438.480804 386.743530,438.878815 376.411102,437.799591 
	C369.959839,437.125763 363.677094,434.620270 357.380676,432.730194 
	C345.648102,429.208313 334.940002,423.696014 324.368378,417.408844 
	C313.282166,410.815674 303.418640,402.932861 294.607697,393.835724 
	C287.839081,386.847290 281.506531,379.101410 276.582489,370.747803 
	C270.636292,360.660126 265.800934,349.798218 261.597015,338.844574 
	C258.743073,331.408386 257.279419,323.312714 256.144836,315.376068 
	C254.871399,306.468231 253.940598,297.388397 254.174240,288.417603 
	C254.507019,275.640320 256.002563,262.927490 260.610992,250.751877 
	C263.482117,243.166245 265.193298,235.125565 268.285553,227.644791 
	C270.712067,221.774658 273.858704,215.984116 277.746094,210.982666 
	C285.148834,201.458466 292.965088,192.198135 301.246704,183.429916 
	C310.562225,173.567078 321.988892,166.281342 333.978973,160.077332 
	C344.173370,154.802444 354.631317,149.976639 366.109039,148.026596 
	C374.241821,146.644882 382.344849,144.751328 390.538879,144.155685 
	C399.822235,143.480881 409.219086,143.571121 418.515411,144.150238 
	C424.749847,144.538620 431.021454,145.914017 437.051880,147.634598 
	C446.867432,150.435104 457.026306,152.821899 466.070374,157.329330 
	C476.507599,162.531052 486.110413,169.536057 495.681396,176.314529 
	C508.133911,185.133743 518.035461,196.789398 526.264221,209.326630 
	C533.150757,219.818924 537.883545,231.810837 542.835876,243.451080 
	C545.384827,249.442337 546.332092,256.114990 548.023682,262.912720 
z"/>
<path fill="#FFFFFF" opacity="1.000000" stroke="none" 
	d="
M803.000000,572.000000 
	C803.000000,596.476501 803.000000,620.453003 803.000000,644.714417 
	C767.375000,644.714417 731.970520,644.714417 696.282654,644.714417 
	C696.282654,470.038544 696.282654,295.304932 696.282654,120.285583 
	C731.625000,120.285583 767.029480,120.285583 803.000000,120.285583 
	C803.000000,270.651642 803.000000,421.075836 803.000000,572.000000 
z"/>
<path fill="#FFFFFF" opacity="1.000000" stroke="none" 
	d="
M1856.000000,522.000000 
	C1856.000000,563.140930 1856.000000,603.781921 1856.000000,644.711243 
	C1822.382935,644.711243 1788.979736,644.711243 1755.240112,644.711243 
	C1755.164185,643.536987 1755.010254,642.267090 1755.010132,640.997192 
	C1754.999268,525.175171 1755.023438,409.353119 1754.909424,293.531219 
	C1754.905151,289.137451 1756.106689,287.878815 1760.520386,287.903870 
	C1792.159058,288.083649 1823.799194,288.000000 1856.000000,288.000000 
	C1856.000000,365.987061 1856.000000,443.743530 1856.000000,522.000000 
z"/>
<path fill="#FFFFFF" opacity="1.000000" stroke="none" 
	d="
M255.684464,414.255676 
	C264.508240,423.011963 274.655426,430.472931 281.188690,440.329315 
	C291.174652,455.394592 298.618286,472.066986 298.063141,491.100922 
	C297.705933,503.349243 298.405212,515.524719 294.138428,527.489380 
	C288.335083,543.762756 280.085693,558.634033 267.609894,570.282227 
	C260.157104,577.240540 251.484909,583.194214 241.921616,587.964905 
	C224.656357,596.577820 206.613647,599.156189 187.963562,597.769775 
	C177.321777,596.978760 166.689499,594.846436 156.723526,590.089172 
	C146.300858,585.114014 136.301437,579.434753 128.182571,571.355164 
	C122.023994,565.226318 117.409004,557.566833 111.925621,550.734131 
	C104.988327,542.089661 101.287537,531.968567 98.936607,521.420105 
	C96.452614,510.274506 96.013412,499.022583 96.606262,487.436554 
	C97.264870,474.565308 101.394653,463.083466 106.295090,451.764496 
	C109.129845,445.216827 113.281586,438.853119 118.180733,433.674377 
	C125.864403,425.552155 134.092178,417.673615 143.172989,411.215240 
	C153.652863,403.761810 166.084503,399.834473 178.651794,397.066162 
	C192.723953,393.966400 207.001984,394.485901 220.747467,398.228180 
	C233.009918,401.566711 245.148682,405.914185 255.684464,414.255676 
z"/>
<path fill="#FFFFFF" opacity="1.000000" stroke="none" 
	d="
M1822.321045,225.291885 
	C1807.888184,229.275421 1793.886963,227.923813 1780.655151,222.791428 
	C1768.118530,217.928635 1758.101074,209.491745 1750.751221,197.655823 
	C1744.396362,187.422195 1741.733521,176.486542 1742.164917,164.938736 
	C1742.718750,150.110992 1746.979614,136.806549 1758.799438,126.162354 
	C1763.994751,121.483810 1768.790771,116.371864 1775.101929,113.573944 
	C1784.991333,109.189697 1795.357666,105.482208 1806.377075,106.102226 
	C1824.671997,107.131584 1841.444946,112.440651 1854.072632,126.660606 
	C1865.166992,139.153870 1871.165405,153.908798 1869.812500,170.670593 
	C1868.875000,182.286530 1864.617188,192.902557 1857.369629,202.575790 
	C1850.119873,212.251846 1840.761475,218.431061 1830.166626,223.268204 
	C1827.876709,224.313705 1825.182983,224.474319 1822.321045,225.291885 
z"/>
<path fill="#FFFFFF" opacity="1.000000" stroke="none" 
	d="
M975.988647,739.381836 
	C977.818298,748.450684 977.132812,756.707336 973.635864,764.993835 
	C968.741638,776.591614 959.858032,782.979614 948.194702,785.937012 
	C938.543274,788.384338 929.217224,787.455200 920.889648,781.388306 
	C917.752319,779.102661 915.502625,780.401062 913.502380,782.997620 
	C909.492188,788.203186 907.486877,788.353577 904.029053,783.356018 
	C903.433167,782.494873 903.554077,780.696228 904.031433,779.642029 
	C904.679260,778.211365 905.980896,777.073364 907.018738,775.823669 
	C907.963013,774.686707 908.929382,773.568115 909.886597,772.441895 
	C901.149963,763.949829 900.668823,739.500610 907.694702,728.808533 
	C918.957092,711.669189 941.605042,705.777344 963.454956,719.227539 
	C964.337097,717.992859 965.242493,716.720215 966.153442,715.451538 
	C968.991333,711.499268 971.877747,711.397766 975.293701,714.695312 
	C977.541687,716.865417 977.317993,718.353271 975.193054,720.415161 
	C973.388672,722.165955 972.046692,724.393372 970.567810,726.321716 
	C972.218689,730.175110 974.098694,734.563354 975.988647,739.381836 
M946.503296,735.997864 
	C948.988892,733.139404 951.474487,730.280945 953.947021,727.437500 
	C947.818909,722.451904 940.900940,721.981262 934.428589,723.254761 
	C927.820496,724.554932 922.226196,728.201965 917.947021,734.260864 
	C912.701111,741.688599 912.329834,759.174500 917.996399,763.216309 
	C927.430542,754.216370 936.713928,745.360291 946.503296,735.997864 
M936.916565,775.974365 
	C949.833618,776.118530 959.105835,770.667542 964.115417,758.462708 
	C967.574036,750.036438 966.240662,742.318115 962.593994,736.506042 
	C949.853577,747.975037 937.145325,759.415039 923.842712,771.390076 
	C928.912903,773.146057 932.513489,774.393066 936.916565,775.974365 
z"/>
<path fill="#FFFFFF" opacity="1.000000" stroke="none" 
	d="
M1821.794434,787.000000 
	C1809.859131,787.118896 1800.248291,783.149536 1792.394287,772.940857 
	C1792.394287,777.477173 1792.394287,780.946411 1792.394287,784.707764 
	C1788.747681,784.707764 1785.668213,784.707764 1782.291260,784.707764 
	C1782.291260,748.741699 1782.291260,712.670288 1782.291260,676.299072 
	C1785.255859,676.299072 1788.331421,676.299072 1791.936768,676.299072 
	C1791.936768,692.034607 1791.936768,707.897400 1791.936768,724.091980 
	C1796.515991,720.753479 1800.355713,717.367615 1804.718506,714.910706 
	C1811.243164,711.236633 1818.543945,711.811279 1825.749023,712.294678 
	C1833.498047,712.814636 1840.279419,716.539368 1844.835327,721.886108 
	C1849.771484,727.678955 1854.040405,735.105591 1855.618530,742.459534 
	C1858.391724,755.382263 1854.014038,767.333557 1844.577637,776.759338 
	C1838.537842,782.792236 1830.874268,786.157166 1821.794434,787.000000 
M1843.983154,754.934021 
	C1843.844360,750.639038 1844.455688,746.155945 1843.433838,742.082458 
	C1839.486328,726.345947 1822.334961,717.884216 1806.491699,725.954285 
	C1795.668823,731.467224 1790.712402,746.158875 1793.854126,756.596497 
	C1797.033691,767.159790 1804.057861,772.764099 1814.602905,775.325928 
	C1821.814819,777.077942 1827.701294,774.521118 1833.170532,771.059631 
	C1838.602783,767.621582 1841.918701,762.055969 1843.983154,754.934021 
z"/>
<path fill="#FFFFFF" opacity="1.000000" stroke="none" 
	d="
M811.000000,753.755127 
	C810.186951,743.583984 811.670471,734.431763 817.889709,726.591553 
	C823.290039,719.783936 829.242126,713.445374 838.696289,713.081482 
	C845.453308,712.821411 852.373840,712.586365 858.960205,713.780518 
	C862.600952,714.440674 865.697998,718.075623 869.052307,720.351562 
	C870.450806,721.300476 871.881104,722.202576 873.840820,723.480652 
	C873.840820,707.399902 873.840820,692.009705 873.840820,676.311035 
	C877.566162,676.311035 880.964661,676.311035 884.152588,676.311035 
	C884.152588,712.358398 884.152588,748.479370 884.152588,784.798828 
	C880.545227,784.798828 877.472961,784.798828 874.088806,784.798828 
	C874.088806,781.535461 874.088806,778.434631 874.088806,773.895691 
	C859.928589,788.477783 844.509033,791.302795 827.919739,781.242310 
	C818.019470,775.238281 812.241394,765.986084 811.000000,753.755127 
M825.019165,736.898315 
	C821.947693,748.086914 820.916809,758.691956 830.346863,767.996277 
	C838.705872,776.243835 851.353455,778.854858 860.915466,772.405762 
	C870.999695,765.604370 875.681335,754.089539 872.574829,742.157532 
	C869.857483,731.720276 862.671204,725.026184 852.209229,723.163696 
	C840.538452,721.085938 831.696350,726.477356 825.019165,736.898315 
z"/>
<path fill="#FFFFFF" opacity="1.000000" stroke="none" 
	d="
M1701.000000,778.365662 
	C1701.000000,780.642456 1701.000000,782.472961 1701.000000,784.651733 
	C1697.871216,784.651733 1694.791992,784.651733 1691.004639,784.651733 
	C1691.004639,748.785950 1691.004639,712.629395 1691.004639,676.240967 
	C1693.694824,676.240967 1697.092163,676.240967 1701.004883,676.240967 
	C1701.004883,691.768005 1701.004883,707.280884 1701.004883,722.793823 
	C1701.292480,723.145569 1701.580078,723.497375 1701.867676,723.849121 
	C1710.497803,713.588684 1721.708862,711.040039 1734.028198,712.048523 
	C1743.951294,712.860779 1751.608276,718.189392 1757.156738,725.863892 
	C1768.008057,740.872803 1767.459106,757.797791 1757.845215,771.410522 
	C1751.412476,780.518738 1742.242798,786.151978 1730.731201,786.984924 
	C1719.106812,787.825928 1709.905396,782.530884 1701.182617,774.049194 
	C1701.086304,776.088379 1701.043091,777.003906 1701.000000,778.365662 
M1746.451904,767.029846 
	C1754.900757,759.595154 1754.454102,744.735535 1750.959717,737.558533 
	C1746.268555,727.923706 1738.154541,723.084106 1727.022705,722.898987 
	C1710.484741,722.623962 1697.669312,740.568848 1702.863281,756.555664 
	C1705.861328,765.783691 1711.380005,771.588135 1720.770996,774.520020 
	C1728.938843,777.070068 1741.083618,774.280945 1746.451904,767.029846 
z"/>
<path fill="#FFFFFF" opacity="1.000000" stroke="none" 
	d="
M1260.012451,754.565491 
	C1261.003296,746.897888 1261.666138,739.617554 1263.106079,732.494324 
	C1264.435547,725.917542 1279.241333,713.473511 1286.032715,713.083740 
	C1292.662720,712.703186 1299.522705,712.042847 1305.920044,713.318787 
	C1310.627930,714.257874 1314.759888,718.107239 1319.130615,720.690063 
	C1319.797363,721.084106 1320.366577,721.642883 1321.521118,722.549927 
	C1321.730835,720.948853 1322.095215,719.890747 1321.960327,718.900574 
	C1321.341675,714.359436 1323.379639,713.093018 1327.746704,712.855408 
	C1332.881714,712.575989 1334.187744,714.257812 1334.119507,719.297913 
	C1333.835449,740.281799 1333.999878,761.271606 1333.999756,782.259277 
	C1333.999756,783.051147 1333.999756,783.843018 1333.999756,784.576965 
	C1322.542725,785.804321 1322.542725,785.804321 1321.686157,775.941284 
	C1317.553223,778.619934 1313.717651,781.546143 1309.505859,783.754883 
	C1295.475098,791.113220 1277.709229,784.236084 1269.608887,774.863281 
	C1264.297607,768.717590 1262.368164,762.026489 1260.012451,754.565491 
M1282.564331,771.042786 
	C1290.146484,777.039917 1302.845825,777.272217 1311.304321,771.055969 
	C1316.385986,767.321533 1321.224365,762.545654 1321.790649,756.076721 
	C1322.550659,747.397522 1323.251465,738.519043 1315.374268,731.489319 
	C1310.549927,727.183960 1305.784790,723.537720 1299.321899,723.056396 
	C1288.427002,722.244995 1279.941650,726.493591 1274.419556,736.080139 
	C1267.519531,748.058838 1271.555908,763.448914 1282.564331,771.042786 
z"/>
<path fill="#FFFFFF" opacity="1.000000" stroke="none" 
	d="
M1147.000000,769.996216 
	C1147.000000,754.520996 1147.000000,739.545288 1147.000000,724.285278 
	C1136.377808,724.285278 1125.972290,724.285278 1115.163940,724.285278 
	C1115.163940,744.295349 1115.163940,764.369263 1115.163940,784.719971 
	C1111.706055,784.719971 1108.631592,784.719971 1105.155518,784.719971 
	C1105.155518,764.706482 1105.155518,744.628845 1105.155518,724.154175 
	C1100.370361,724.154175 1095.952515,724.154175 1091.273193,724.154175 
	C1091.273193,720.360718 1091.273193,716.953552 1091.273193,713.143555 
	C1095.635620,713.143555 1100.055542,713.143555 1104.074097,713.143555 
	C1105.060425,705.634644 1105.754639,698.530212 1106.974487,691.517212 
	C1108.550415,682.457397 1117.266602,676.619812 1125.713257,676.028625 
	C1128.325928,675.845764 1130.962280,676.000183 1133.790894,676.000183 
	C1133.790894,679.776062 1133.790894,683.191223 1133.790894,686.598450 
	C1121.562256,687.407104 1113.463013,690.759216 1115.222046,713.000000 
	C1125.256958,713.000000 1135.351807,713.000000 1145.446777,713.000000 
	C1158.000000,713.000000 1158.000000,713.000000 1158.000000,725.495911 
	C1158.000000,745.138306 1158.000000,764.780762 1158.000000,784.711182 
	C1154.389282,784.711182 1150.982178,784.711182 1147.000000,784.711182 
	C1147.000000,780.034180 1147.000000,775.264954 1147.000000,769.996216 
z"/>
<path fill="#FFFFFF" opacity="1.000000" stroke="none" 
	d="
M1504.000000,769.996216 
	C1504.000000,738.534851 1504.000000,707.572998 1504.000000,676.305786 
	C1507.573730,676.305786 1510.980591,676.305786 1514.896362,676.305786 
	C1514.896362,696.359924 1514.896362,716.556091 1514.896362,738.010803 
	C1517.557373,736.039429 1519.553467,734.976868 1521.006348,733.410522 
	C1526.647095,727.329346 1532.028198,721.005615 1537.724487,714.978638 
	C1538.803955,713.836548 1540.848145,713.208740 1542.501831,713.087036 
	C1546.244507,712.811768 1550.021362,713.000366 1553.784302,713.000366 
	C1554.102661,713.463745 1554.421143,713.927124 1554.739502,714.390442 
	C1544.970459,724.487366 1535.201416,734.584290 1523.352295,746.831116 
	C1536.711914,758.724121 1550.390137,770.900757 1564.068359,783.077454 
	C1563.683472,783.715698 1563.298584,784.353882 1562.913696,784.992126 
	C1558.375854,784.992126 1553.812500,785.261719 1549.314575,784.837891 
	C1547.849243,784.699829 1546.421753,782.880371 1545.202881,781.612671 
	C1535.587769,771.612915 1526.027466,761.560547 1515.345337,752.010498 
	C1515.345337,762.820312 1515.345337,773.630188 1515.345337,784.716003 
	C1511.380981,784.716003 1507.975220,784.716003 1504.000000,784.716003 
	C1504.000000,780.031067 1504.000000,775.263367 1504.000000,769.996216 
z"/>
<path fill="#FFFFFF" opacity="1.000000" stroke="none" 
	d="
M1000.001587,785.000000 
	C998.206909,785.000000 996.891235,785.000000 995.290649,785.000000 
	C995.290649,748.733704 995.290649,712.658875 995.290649,676.291687 
	C998.272644,676.291687 1001.345703,676.291687 1004.951050,676.291687 
	C1004.951050,696.720520 1004.951050,717.250427 1004.951050,737.780396 
	C1005.326111,737.987671 1005.701172,738.194946 1006.076233,738.402161 
	C1009.922913,734.551941 1013.835266,730.764465 1017.598267,726.834106 
	C1021.500732,722.758057 1024.808105,717.963623 1029.203735,714.549438 
	C1033.779785,710.995117 1039.426758,713.261108 1044.614380,713.477966 
	C1045.125366,714.193176 1045.636353,714.908386 1046.147217,715.623596 
	C1035.566772,724.648743 1024.986328,733.673889 1014.405762,742.699036 
	C1014.502441,743.783386 1014.599060,744.867737 1014.695679,745.952087 
	C1028.038208,758.444946 1041.380737,770.937805 1055.228516,783.903748 
	C1042.601685,787.144104 1038.500244,785.567627 1031.733521,776.427429 
	C1029.650146,773.613342 1026.841187,771.330811 1024.329102,768.840576 
	C1018.270020,762.834106 1012.190125,756.848694 1005.349609,750.095520 
	C1005.349609,762.159912 1005.349609,773.303650 1005.349609,784.759399 
	C1003.350525,784.858154 1001.915527,784.929077 1000.001587,785.000000 
z"/>
<path fill="#FFFFFF" opacity="1.000000" stroke="none" 
	d="
M1604.011353,759.533691 
	C1604.000977,745.243408 1604.119507,731.409302 1603.939697,717.579102 
	C1603.870361,712.250610 1607.417114,713.214844 1610.591431,712.970337 
	C1614.074463,712.702087 1616.193237,713.184937 1616.094604,717.643860 
	C1615.821533,729.970459 1615.830322,742.310364 1616.072632,754.638245 
	C1616.191406,760.679260 1617.222412,766.759216 1622.413208,770.820129 
	C1627.649536,774.916626 1633.334839,777.168945 1640.338623,775.108643 
	C1646.185059,773.388794 1651.089355,770.796204 1654.050415,765.340942 
	C1654.942871,763.696899 1655.859375,761.813660 1655.921143,760.011230 
	C1656.397583,746.099365 1656.844971,732.181091 1656.892212,718.263367 
	C1656.906372,714.055237 1658.110962,712.410950 1662.291504,712.964478 
	C1663.928589,713.181274 1665.618530,713.000000 1667.642090,713.000000 
	C1667.642090,736.921875 1667.642090,760.779602 1667.642090,784.799255 
	C1664.155029,784.799255 1660.737183,784.799255 1657.032959,784.799255 
	C1657.032959,782.497009 1657.032959,780.389526 1657.032959,777.965454 
	C1652.228638,780.504395 1647.948242,783.288269 1643.293701,785.122986 
	C1631.892090,789.617065 1621.240723,786.803711 1612.816162,778.813354 
	C1608.844727,775.046753 1607.500122,768.497131 1605.020752,763.182678 
	C1604.553589,762.181519 1604.347778,761.058350 1604.011353,759.533691 
z"/>
<path fill="#FFFFFF" opacity="1.000000" stroke="none" 
	d="
M795.000000,780.859009 
	C795.382751,783.932800 794.742737,785.410767 791.648926,785.052246 
	C789.354004,784.786316 787.003479,784.999939 784.000000,784.999939 
	C784.000000,782.996460 784.041504,781.077209 783.993347,779.160156 
	C783.673584,766.430603 783.787476,753.669556 782.890869,740.980225 
	C781.687012,723.944702 764.437927,718.327148 751.811035,726.717102 
	C746.243591,730.416443 742.900940,735.370667 742.963196,742.403992 
	C743.087402,756.438843 743.000000,770.475525 743.000000,784.754150 
	C738.303345,784.754150 734.901001,784.754150 731.000000,784.754150 
	C731.000000,777.949707 731.000000,771.178833 731.000000,764.407898 
	C731.000000,749.257690 731.026245,734.107422 730.979126,718.957336 
	C730.968933,715.679871 730.468323,712.641479 735.586182,712.874390 
	C739.708923,713.062012 743.065186,713.039185 742.029114,718.613647 
	C741.894531,719.337585 742.150024,720.133972 742.274780,721.406067 
	C744.305420,720.078918 745.991821,719.185974 747.436951,717.999268 
	C759.010620,708.494873 778.397217,709.873596 787.733521,721.407654 
	C792.320251,727.074280 795.025269,733.845703 795.008118,741.416626 
	C794.978699,754.402466 795.000000,767.388367 795.000000,780.859009 
z"/>
<path fill="#FFFFFF" opacity="1.000000" stroke="none" 
	d="
M1419.000000,777.929932 
	C1419.000000,780.404358 1419.000000,782.387268 1419.000000,784.684570 
	C1415.775879,784.684570 1412.701904,784.684570 1409.000000,784.684570 
	C1409.000000,774.280090 1409.339111,763.679565 1408.871338,753.114746 
	C1408.595703,746.890015 1408.026978,740.351135 1405.866333,734.601318 
	C1400.422119,720.112976 1385.355591,721.094177 1377.046387,726.457458 
	C1370.254150,730.841675 1367.154419,737.386597 1367.048218,745.246826 
	C1366.871338,758.356873 1367.000000,771.470947 1367.000000,784.789917 
	C1363.230225,784.789917 1359.828491,784.789917 1356.000000,784.789917 
	C1356.000000,773.534912 1356.000000,762.427307 1356.000000,751.319641 
	C1356.000000,740.330688 1356.158325,729.338318 1355.917236,718.354675 
	C1355.828247,714.302246 1356.841431,712.727295 1361.189941,712.863159 
	C1365.138184,712.986572 1367.809448,713.386841 1367.023193,718.221497 
	C1366.894165,719.014648 1367.073364,719.857971 1367.157227,721.729675 
	C1369.062378,720.495972 1370.691650,719.869751 1371.714111,718.709167 
	C1378.185791,711.363892 1386.821777,711.684204 1395.302612,712.203369 
	C1406.202515,712.870544 1413.046021,719.658813 1417.255737,729.017334 
	C1418.782471,732.411560 1418.865967,736.625854 1418.927246,740.476868 
	C1419.123047,752.794617 1419.000000,765.117493 1419.000000,777.929932 
z"/>
<path fill="#FFFFFF" opacity="1.000000" stroke="none" 
	d="
M1243.000000,751.002075 
	C1242.985107,762.331421 1242.971069,773.161255 1242.948242,783.991089 
	C1242.947998,784.136108 1242.836426,784.280884 1242.658447,784.712891 
	C1239.721069,784.712891 1236.647095,784.712891 1233.000000,784.712891 
	C1233.000000,771.368469 1233.181274,757.932617 1232.878662,744.507629 
	C1232.798096,740.930298 1231.736938,737.161072 1230.260132,733.868408 
	C1225.403687,723.041016 1213.975220,720.861816 1204.542847,724.851440 
	C1195.393433,728.721252 1191.333008,735.940247 1191.086914,745.295166 
	C1190.742188,758.402283 1191.000000,771.525208 1191.000000,784.818726 
	C1187.628052,784.818726 1184.671997,784.818726 1181.357178,784.818726 
	C1181.357178,761.080688 1181.357178,737.224487 1181.357178,713.203369 
	C1184.495850,713.203369 1187.573853,713.203369 1190.963379,713.203369 
	C1190.963379,715.844360 1190.963379,718.289368 1190.963379,721.667603 
	C1192.771484,720.680298 1194.290894,720.319580 1195.057373,719.358398 
	C1201.563843,711.199097 1210.592529,711.630188 1219.499023,712.304993 
	C1225.531128,712.761963 1230.885742,714.938721 1235.330811,719.641968 
	C1240.458984,725.067993 1242.302612,731.519897 1242.935181,738.511841 
	C1243.294067,742.478210 1243.000000,746.503723 1243.000000,751.002075 
z"/>
<path fill="#FFFFFF" opacity="1.000000" stroke="none" 
	d="
M1451.821655,785.352173 
	C1442.713867,782.914001 1434.982422,773.696594 1435.100830,765.000000 
	C1437.215942,765.000000 1439.393677,765.293213 1441.458008,764.934265 
	C1444.925171,764.331482 1446.377563,766.048035 1447.496582,768.942078 
	C1449.188232,773.317444 1457.582886,778.119751 1462.028076,776.864136 
	C1465.961792,775.752930 1470.641357,774.653564 1473.219116,771.893494 
	C1479.418579,765.255493 1475.874390,758.200745 1466.282349,755.010864 
	C1459.480957,752.749146 1452.298218,751.294189 1445.926636,748.171570 
	C1439.091064,744.821655 1436.507935,735.338562 1438.524658,727.891846 
	C1442.621704,712.763794 1454.239990,711.091736 1466.749023,712.391235 
	C1475.577515,713.308472 1481.485596,718.418213 1484.336060,726.863586 
	C1484.835205,728.342773 1484.898926,729.968994 1485.244019,732.000000 
	C1482.991943,732.000000 1481.192383,732.014221 1479.392944,731.996826 
	C1476.371582,731.967651 1474.354858,732.006470 1472.246582,728.208252 
	C1467.010254,718.775269 1455.447021,720.336426 1449.616821,728.086792 
	C1445.823364,733.129639 1452.411133,742.522217 1460.061523,742.921326 
	C1468.271729,743.349609 1475.375366,746.309082 1481.899292,751.007263 
	C1485.256714,753.425232 1488.364624,764.119324 1486.626221,769.907715 
	C1483.092773,781.673401 1468.335205,789.868408 1456.299805,786.722351 
	C1454.907593,786.358337 1453.513184,786.002930 1451.821655,785.352173 
z"/>
<path fill="#FFFFFF" opacity="1.000000" stroke="none" 
	d="
M1583.000000,754.000000 
	C1583.000000,764.463684 1583.000000,774.427368 1583.000000,784.695068 
	C1579.759277,784.695068 1576.686768,784.695068 1573.304199,784.695068 
	C1573.304199,748.691345 1573.304199,712.542480 1573.304199,676.196411 
	C1576.651733,676.196411 1579.922241,676.196411 1583.000000,676.196411 
	C1583.000000,701.935242 1583.000000,727.717590 1583.000000,754.000000 
z"/>
<path fill="#FFFFFF" opacity="1.000000" stroke="none" 
	d="
M702.069702,785.000000 
	C698.898010,785.434326 697.910706,784.545715 697.928955,781.584473 
	C698.061279,760.094788 698.095459,738.603210 697.922852,717.114136 
	C697.886536,712.599548 700.485229,712.922852 703.431091,712.985901 
	C706.235901,713.045959 709.101929,712.325928 709.069824,716.975647 
	C708.914551,739.446655 708.999878,761.919373 708.999878,785.000000 
	C706.730957,785.000000 704.639771,785.000000 702.069702,785.000000 
z"/>
<path fill="#FFFFFF" opacity="1.000000" stroke="none" 
	d="
M1158.147705,694.363953 
	C1154.356201,694.725037 1150.341431,695.869324 1147.433472,694.558289 
	C1143.536621,692.801453 1142.927246,687.085632 1145.237671,684.424500 
	C1148.381348,680.803711 1153.770264,679.896423 1156.981079,682.447327 
	C1162.161865,686.563354 1162.421875,688.664612 1158.147705,694.363953 
z"/>
<path fill="#FFFFFF" opacity="1.000000" stroke="none" 
	d="
M696.011292,690.620361 
	C695.371094,686.095886 696.963440,683.365540 700.799133,681.618469 
	C704.844482,679.775940 707.994995,681.899475 710.418701,684.231934 
	C711.816467,685.577087 712.369446,688.972961 711.731262,690.934631 
	C711.077576,692.944092 708.780273,695.110107 706.720093,695.832703 
	C701.806702,697.556091 698.538879,695.776855 696.011292,690.620361 
z"/>
</svg>