<svg width="161" height="60" viewBox="0 0 161 60" fill="none" xmlns="http://www.w3.org/2000/svg">
<path d="M7.81493 44.7315C8.4552 45.3661 8.89125 46.1746 9.06792 47.0548C9.24459 47.935 9.15396 48.8474 8.80747 49.6765C8.46099 50.5056 7.87422 51.2143 7.12137 51.7129C6.36852 52.2116 5.48341 52.4777 4.57796 52.4777C3.67251 52.4777 2.78739 52.2116 2.03454 51.7129C1.28169 51.2143 0.694925 50.5056 0.348441 49.6765C0.0019577 48.8474 -0.088678 47.935 0.0879941 47.0548C0.264666 46.1746 0.700712 45.3661 1.34099 44.7315C2.19951 43.8806 3.36387 43.4026 4.57796 43.4026C5.79204 43.4026 6.9564 43.8806 7.81493 44.7315ZM10.3062 30.6625C9.14856 31.8098 8.36016 33.2716 8.0407 34.863C7.72125 36.4544 7.8851 38.104 8.51153 39.6031C9.13796 41.1022 10.1988 42.3835 11.56 43.285C12.9211 44.1865 14.5214 44.6677 16.1585 44.6677C17.7956 44.6677 19.3959 44.1865 20.757 43.285C22.1182 42.3835 23.179 41.1022 23.8055 39.6031C24.4319 38.104 24.5957 36.4544 24.2763 34.863C23.9568 33.2716 23.1684 31.8098 22.0108 30.6625C21.2423 29.9007 20.33 29.2963 19.3258 28.884C18.3217 28.4717 17.2454 28.2594 16.1585 28.2594C15.0716 28.2594 13.9953 28.4717 12.9912 28.884C11.987 29.2963 11.0747 29.9007 10.3062 30.6625ZM24.5005 11.1617C22.801 12.846 21.6436 14.992 21.1747 17.3283C20.7057 19.6646 20.9463 22.0863 21.8659 24.2871C22.7855 26.4879 24.343 28.3689 26.3412 29.6923C28.3395 31.0158 30.6888 31.7222 33.0921 31.7222C35.4954 31.7222 37.8448 31.0158 39.843 29.6923C41.8413 28.3689 43.3987 26.4879 44.3183 24.2871C45.238 22.0863 45.4785 19.6646 45.0096 17.3283C44.5406 14.992 43.3832 12.846 41.6837 11.1617C40.5555 10.0433 39.2161 9.15616 37.7419 8.55087C36.2678 7.94559 34.6878 7.63405 33.0921 7.63405C31.4965 7.63405 29.9165 7.94559 28.4423 8.55087C26.9681 9.15616 25.6287 10.0433 24.5005 11.1617Z" fill="white"/>
<path d="M63.1187 1.41198V46.5954H57.5985V1.41198H63.1187Z" fill="white"/>
<path d="M78.7276 26.2099V46.5954H73.4745V12.7078H78.5495V18.0028H78.9947C79.796 16.2819 81.0128 14.8993 82.6451 13.8551C84.2774 12.7961 86.3846 12.2666 88.9666 12.2666C91.2815 12.2666 93.3071 12.7372 95.0433 13.6786C96.7794 14.6052 98.1298 16.0172 99.0944 17.9145C100.059 19.7972 100.541 22.1799 100.541 25.0627V46.5954H95.2881V25.4157C95.2881 22.7535 94.5907 20.6796 93.1958 19.1941C91.8009 17.6939 89.8867 16.9438 87.453 16.9438C85.7762 16.9438 84.2774 17.3041 82.9568 18.0248C81.6509 18.7455 80.6196 19.7971 79.8628 21.1797C79.106 22.5623 78.7276 24.239 78.7276 26.2099Z" fill="white"/>
<path d="M110.853 46.5954V1.41198H138.186V6.26567H116.373V21.5327H136.138V26.3864H116.373V46.5954H110.853Z" fill="white"/>
<path d="M146.928 46.5954V12.7078H152.181V46.5954H146.928ZM149.599 7.05991C148.576 7.05991 147.693 6.71426 146.951 6.02298C146.224 5.3317 145.86 4.50069 145.86 3.52995C145.86 2.55922 146.224 1.72821 146.951 1.03692C147.693 0.345641 148.576 0 149.599 0C150.623 0 151.499 0.345641 152.226 1.03692C152.968 1.72821 153.339 2.55922 153.339 3.52995C153.339 4.50069 152.968 5.3317 152.226 6.02298C151.499 6.71426 150.623 7.05991 149.599 7.05991Z" fill="white"/>
<path d="M58.7421 50.8095V59.6379H57.6635V50.8095H58.7421Z" fill="white"/>
<path d="M61.792 55.6548V59.6379H60.7656V53.0166H61.7572V54.0512H61.8441C62.0007 53.715 62.2385 53.4448 62.5574 53.2408C62.8763 53.0339 63.2881 52.9304 63.7926 52.9304C64.2449 52.9304 64.6406 53.0224 64.9799 53.2063C65.3191 53.3873 65.5829 53.6632 65.7714 54.034C65.9599 54.4018 66.0541 54.8674 66.0541 55.4306V59.6379H65.0277V55.4996C65.0277 54.9794 64.8914 54.5742 64.6189 54.284C64.3463 53.9908 63.9723 53.8443 63.4968 53.8443C63.1692 53.8443 62.8763 53.9147 62.6183 54.0555C62.3631 54.1963 62.1616 54.4018 62.0138 54.6719C61.8659 54.9421 61.792 55.2697 61.792 55.6548Z" fill="white"/>
<path d="M70.4522 59.7758C69.8955 59.7758 69.404 59.6365 68.9778 59.3577C68.5516 59.0761 68.2182 58.6795 67.9775 58.1679C67.7369 57.6535 67.6165 57.0457 67.6165 56.3445C67.6165 55.649 67.7369 55.0455 67.9775 54.534C68.2182 54.0225 68.553 53.6273 68.9822 53.3485C69.4113 53.0698 69.9071 52.9304 70.4696 52.9304C70.9045 52.9304 71.2481 53.0023 71.5003 53.1459C71.7554 53.2868 71.9497 53.4477 72.0831 53.6287C72.2194 53.8069 72.3252 53.9535 72.4006 54.0684H72.4876V50.8095H73.514V59.6379H72.5224V58.6206H72.4006C72.3252 58.7413 72.2179 58.8936 72.0787 59.0775C71.9396 59.2586 71.741 59.4209 71.4829 59.5646C71.2249 59.7054 70.8813 59.7758 70.4522 59.7758ZM70.5913 58.862C71.0031 58.862 71.351 58.7556 71.6351 58.543C71.9193 58.3274 72.1353 58.03 72.2831 57.6507C72.431 57.2684 72.505 56.8273 72.505 56.3273C72.505 55.833 72.4325 55.4005 72.2875 55.0297C72.1425 54.6561 71.928 54.3659 71.6438 54.159C71.3597 53.9492 71.0089 53.8443 70.5913 53.8443C70.1564 53.8443 69.794 53.9549 69.5041 54.1762C69.217 54.3946 69.001 54.6921 68.856 55.0685C68.714 55.4421 68.6429 55.8617 68.6429 56.3273C68.6429 56.7986 68.7154 57.2268 68.8604 57.6119C69.0083 57.9941 69.2257 58.2987 69.5127 58.5257C69.8027 58.7499 70.1622 58.862 70.5913 58.862Z" fill="white"/>
<path d="M76.2495 60L75.5885 59.5517L80.2508 52.7062L80.9118 53.1546L76.2495 60ZM78.2502 59.7758C77.6471 59.7758 77.1179 59.6336 76.6627 59.3491C76.2104 59.0646 75.8567 58.6666 75.6015 58.155C75.3493 57.6435 75.2232 57.0457 75.2232 56.3617C75.2232 55.672 75.3493 55.07 75.6015 54.5556C75.8567 54.0411 76.2104 53.6417 76.6627 53.3572C77.1179 53.0727 77.6471 52.9304 78.2502 52.9304C78.8532 52.9304 79.3809 53.0727 79.8332 53.3572C80.2885 53.6417 80.6422 54.0411 80.8944 54.5556C81.1496 55.07 81.2772 55.672 81.2772 56.3617C81.2772 57.0457 81.1496 57.6435 80.8944 58.155C80.6422 58.6666 80.2885 59.0646 79.8332 59.3491C79.3809 59.6336 78.8532 59.7758 78.2502 59.7758ZM78.2502 58.862C78.7083 58.862 79.0852 58.7456 79.3809 58.5128C79.6767 58.28 79.8956 57.974 80.0376 57.5946C80.1797 57.2153 80.2508 56.8043 80.2508 56.3617C80.2508 55.9192 80.1797 55.5068 80.0376 55.1246C79.8956 54.7424 79.6767 54.4334 79.3809 54.1978C79.0852 53.9621 78.7083 53.8443 78.2502 53.8443C77.792 53.8443 77.4151 53.9621 77.1194 54.1978C76.8236 54.4334 76.6047 54.7424 76.4627 55.1246C76.3206 55.5068 76.2495 55.9192 76.2495 56.3617C76.2495 56.8043 76.3206 57.2153 76.4627 57.5946C76.6047 57.974 76.8236 58.28 77.1194 58.5128C77.4151 58.7456 77.792 58.862 78.2502 58.862Z" fill="white"/>
<path d="M83.8007 57.2239L83.7833 55.9652H83.9921L86.9147 53.0166H88.1847L85.0707 56.1376H84.9837L83.8007 57.2239ZM82.8439 59.6379V50.8095H83.8703V59.6379H82.8439ZM87.0887 59.6379L84.4792 56.3617L85.2099 55.6548L88.3934 59.6379H87.0887Z" fill="white"/>
<path d="M93.0894 59.6379V50.8095H98.4301V51.7579H94.168V54.7409H98.03V55.6893H94.168V59.6379H93.0894Z" fill="white"/>
<path d="M100.138 59.6379V53.0166H101.165V59.6379H100.138ZM100.66 51.9131C100.46 51.9131 100.288 51.8455 100.143 51.7105C100.001 51.5754 99.9295 51.413 99.9295 51.2234C99.9295 51.0337 100.001 50.8713 100.143 50.7362C100.288 50.6012 100.46 50.5336 100.66 50.5336C100.86 50.5336 101.031 50.6012 101.173 50.7362C101.318 50.8713 101.391 51.0337 101.391 51.2234C101.391 51.413 101.318 51.5754 101.173 51.7105C101.031 51.8455 100.86 51.9131 100.66 51.9131Z" fill="white"/>
<path d="M104.071 55.6548V59.6379H103.045V53.0166H104.036V54.0512H104.123C104.28 53.715 104.517 53.4448 104.836 53.2408C105.155 53.0339 105.567 52.9304 106.072 52.9304C106.524 52.9304 106.92 53.0224 107.259 53.2063C107.598 53.3873 107.862 53.6632 108.05 54.034C108.239 54.4018 108.333 54.8674 108.333 55.4306V59.6379H107.307V55.4996C107.307 54.9794 107.17 54.5742 106.898 54.284C106.625 53.9908 106.251 53.8443 105.776 53.8443C105.448 53.8443 105.155 53.9147 104.897 54.0555C104.642 54.1963 104.441 54.4018 104.293 54.6719C104.145 54.9421 104.071 55.2697 104.071 55.6548Z" fill="white"/>
<path d="M112.174 59.7931C111.751 59.7931 111.367 59.7141 111.022 59.556C110.677 59.3951 110.403 59.1637 110.2 58.862C109.997 58.5573 109.896 58.1895 109.896 57.7584C109.896 57.3791 109.971 57.0716 110.122 56.8359C110.272 56.5974 110.474 56.4106 110.726 56.2755C110.978 56.1405 111.257 56.0399 111.561 55.9738C111.869 55.9048 112.177 55.8502 112.488 55.81C112.894 55.7582 113.223 55.7194 113.475 55.6936C113.73 55.6648 113.916 55.6174 114.032 55.5513C114.15 55.4852 114.21 55.3703 114.21 55.2065V55.172C114.21 54.7467 114.092 54.4162 113.858 54.1805C113.626 53.9449 113.273 53.827 112.801 53.827C112.311 53.827 111.927 53.9334 111.648 54.146C111.37 54.3587 111.174 54.5857 111.061 54.8271L110.087 54.4823C110.261 54.0799 110.493 53.7667 110.783 53.5425C111.076 53.3155 111.395 53.1574 111.74 53.0684C112.087 52.9764 112.43 52.9304 112.766 52.9304C112.981 52.9304 113.227 52.9563 113.505 53.008C113.787 53.0569 114.058 53.1589 114.319 53.3141C114.582 53.4692 114.801 53.7035 114.975 54.0167C115.149 54.33 115.236 54.7495 115.236 55.2754V59.6379H114.21V58.7413H114.158C114.088 58.885 113.972 59.0387 113.81 59.2025C113.647 59.3663 113.431 59.5057 113.162 59.6207C112.892 59.7356 112.563 59.7931 112.174 59.7931ZM112.331 58.8792C112.737 58.8792 113.079 58.8002 113.357 58.6421C113.639 58.4841 113.85 58.28 113.992 58.03C114.137 57.78 114.21 57.517 114.21 57.2411V56.31C114.166 56.3617 114.071 56.4092 113.923 56.4523C113.778 56.4925 113.61 56.5284 113.418 56.56C113.23 56.5888 113.046 56.6146 112.866 56.6376C112.689 56.6578 112.546 56.675 112.435 56.6894C112.169 56.7239 111.919 56.7799 111.687 56.8575C111.458 56.9322 111.273 57.0457 111.131 57.198C110.992 57.3475 110.922 57.5515 110.922 57.8102C110.922 58.1636 111.054 58.4309 111.318 58.6119C111.584 58.7901 111.922 58.8792 112.331 58.8792Z" fill="white"/>
<path d="M118.136 55.6548V59.6379H117.11V53.0166H118.101V54.0512H118.188C118.345 53.715 118.583 53.4448 118.901 53.2408C119.22 53.0339 119.632 52.9304 120.137 52.9304C120.589 52.9304 120.985 53.0224 121.324 53.2063C121.663 53.3873 121.927 53.6632 122.115 54.034C122.304 54.4018 122.398 54.8674 122.398 55.4306V59.6379H121.372V55.4996C121.372 54.9794 121.236 54.5742 120.963 54.284C120.69 53.9908 120.316 53.8443 119.841 53.8443C119.513 53.8443 119.22 53.9147 118.962 54.0555C118.707 54.1963 118.506 54.4018 118.358 54.6719C118.21 54.9421 118.136 55.2697 118.136 55.6548Z" fill="white"/>
<path d="M129.006 54.4995L128.084 54.7582C128.026 54.6058 127.94 54.4578 127.827 54.3142C127.717 54.1676 127.566 54.0469 127.375 53.952C127.183 53.8572 126.938 53.8098 126.64 53.8098C126.231 53.8098 125.89 53.9032 125.618 54.09C125.348 54.2739 125.213 54.5081 125.213 54.7926C125.213 55.0455 125.306 55.2453 125.492 55.3918C125.677 55.5384 125.967 55.6605 126.361 55.7582L127.353 55.9996C127.95 56.1433 128.395 56.3632 128.688 56.6592C128.981 56.9523 129.127 57.3302 129.127 57.7929C129.127 58.1723 129.017 58.5114 128.797 58.8102C128.579 59.1091 128.275 59.3448 127.884 59.5172C127.492 59.6896 127.037 59.7758 126.518 59.7758C125.837 59.7758 125.273 59.6293 124.826 59.3361C124.38 59.043 124.097 58.6148 123.978 58.0516L124.952 57.8102C125.045 58.1665 125.22 58.4338 125.478 58.6119C125.739 58.7901 126.08 58.8792 126.501 58.8792C126.979 58.8792 127.359 58.7786 127.64 58.5775C127.924 58.3734 128.066 58.1291 128.066 57.8446C128.066 57.6147 127.985 57.4222 127.823 57.267C127.66 57.1089 127.411 56.9911 127.075 56.9135L125.961 56.6549C125.349 56.5112 124.9 56.2885 124.613 55.9867C124.329 55.6821 124.187 55.3013 124.187 54.8444C124.187 54.4708 124.293 54.1403 124.504 53.8529C124.719 53.5655 125.01 53.3399 125.378 53.1761C125.75 53.0123 126.17 52.9304 126.64 52.9304C127.301 52.9304 127.82 53.0741 128.197 53.3615C128.576 53.6489 128.846 54.0282 129.006 54.4995Z" fill="white"/>
<path d="M131.629 57.2239L131.612 55.9652H131.821L134.743 53.0166H136.013L132.899 56.1376H132.812L131.629 57.2239ZM130.672 59.6379V50.8095H131.699V59.6379H130.672ZM134.917 59.6379L132.308 56.3617L133.038 55.6548L136.222 59.6379H134.917Z" fill="white"/>
<path d="M138.361 50.8095V59.6379H137.334V50.8095H138.361Z" fill="white"/>
<path d="M144.45 56.9308V53.0166H145.477V59.6379H144.45V58.5171H144.381C144.224 58.8533 143.981 59.1393 143.65 59.3749C143.32 59.6077 142.902 59.7241 142.398 59.7241C141.98 59.7241 141.609 59.6336 141.284 59.4525C140.96 59.2686 140.704 58.9927 140.519 58.6249C140.333 58.2542 140.241 57.7872 140.241 57.2239V53.0166H141.267V57.1549C141.267 57.6377 141.403 58.0228 141.676 58.3102C141.951 58.5976 142.302 58.7413 142.728 58.7413C142.983 58.7413 143.243 58.6766 143.507 58.5473C143.773 58.418 143.997 58.2197 144.176 57.9524C144.359 57.6851 144.45 57.3446 144.45 56.9308Z" fill="white"/>
<path d="M147.496 59.6379V50.8095H148.522V54.0684H148.609C148.685 53.9535 148.789 53.8069 148.922 53.6287C149.059 53.4477 149.253 53.2868 149.505 53.1459C149.76 53.0023 150.105 52.9304 150.54 52.9304C151.103 52.9304 151.599 53.0698 152.028 53.3485C152.457 53.6273 152.792 54.0225 153.032 54.534C153.273 55.0455 153.393 55.649 153.393 56.3445C153.393 57.0457 153.273 57.6535 153.032 58.1679C152.792 58.6795 152.458 59.0761 152.032 59.3577C151.606 59.6365 151.114 59.7758 150.558 59.7758C150.129 59.7758 149.785 59.7054 149.527 59.5646C149.269 59.4209 149.07 59.2586 148.931 59.0775C148.792 58.8936 148.685 58.7413 148.609 58.6206H148.488V59.6379H147.496ZM148.505 56.3273C148.505 56.8273 148.579 57.2684 148.727 57.6507C148.875 58.03 149.091 58.3274 149.375 58.543C149.659 58.7556 150.007 58.862 150.419 58.862C150.848 58.862 151.206 58.7499 151.493 58.5257C151.783 58.2987 152 57.9941 152.145 57.6119C152.293 57.2268 152.367 56.7986 152.367 56.3273C152.367 55.8617 152.294 55.4421 152.15 55.0685C152.007 54.6921 151.791 54.3946 151.501 54.1762C151.214 53.9549 150.853 53.8443 150.419 53.8443C150.001 53.8443 149.65 53.9492 149.366 54.159C149.082 54.3659 148.867 54.6561 148.722 55.0297C148.577 55.4005 148.505 55.833 148.505 56.3273Z" fill="white"/>
<path d="M155.103 59.6379V50.8095H156.129V54.0684H156.216C156.291 53.9535 156.396 53.8069 156.529 53.6287C156.665 53.4477 156.86 53.2868 157.112 53.1459C157.367 53.0023 157.712 52.9304 158.147 52.9304C158.709 52.9304 159.205 53.0698 159.634 53.3485C160.063 53.6273 160.398 54.0225 160.639 54.534C160.88 55.0455 161 55.649 161 56.3445C161 57.0457 160.88 57.6535 160.639 58.1679C160.398 58.6795 160.065 59.0761 159.639 59.3577C159.212 59.6365 158.721 59.7758 158.164 59.7758C157.735 59.7758 157.392 59.7054 157.134 59.5646C156.876 59.4209 156.677 59.2586 156.538 59.0775C156.399 58.8936 156.291 58.7413 156.216 58.6206H156.094V59.6379H155.103ZM156.112 56.3273C156.112 56.8273 156.186 57.2684 156.333 57.6507C156.481 58.03 156.697 58.3274 156.981 58.543C157.266 58.7556 157.613 58.862 158.025 58.862C158.454 58.862 158.812 58.7499 159.099 58.5257C159.389 58.2987 159.607 57.9941 159.752 57.6119C159.9 57.2268 159.974 56.7986 159.974 56.3273C159.974 55.8617 159.901 55.4421 159.756 55.0685C159.614 54.6921 159.398 54.3946 159.108 54.1762C158.821 53.9549 158.46 53.8443 158.025 53.8443C157.608 53.8443 157.257 53.9492 156.973 54.159C156.689 54.3659 156.474 54.6561 156.329 55.0297C156.184 55.4005 156.112 55.833 156.112 56.3273Z" fill="white"/>
</svg>
